<svg version="1.1" id="Layer_1" xmlns="http://www.w3.org/2000/svg" xmlns:xlink="http://www.w3.org/1999/xlink" x="0px" y="0px"
	 width="100%" viewBox="0 0 928 1024" enable-background="new 0 0 928 1024" xml:space="preserve">
<path fill="#000000" opacity="1.000000" stroke="none" 
	d="
M683.127197,598.899048 
	C679.466675,602.590088 675.989380,605.896545 673.940247,610.451721 
	C671.237244,616.460693 673.220276,620.154602 679.680054,619.752930 
	C687.314087,619.278320 694.944763,618.427124 702.514038,617.312195 
	C713.454102,615.700684 722.411865,618.776855 732.012146,624.674438 
	C745.622253,633.035095 749.713684,644.081665 749.152893,658.907043 
	C748.884216,666.010498 748.332642,672.031372 742.757812,677.394470 
	C737.371521,682.576111 738.710144,684.143738 743.814453,690.372131 
	C748.580566,696.187988 752.671082,702.907104 753.057434,710.978699 
	C753.336792,716.815063 753.182556,722.635742 752.655090,728.456482 
	C752.491333,730.262817 752.454163,732.134521 752.733093,733.917786 
	C754.021484,742.155396 754.031128,742.243225 747.114502,746.340454 
	C745.537842,747.274414 743.917786,748.135376 742.344666,749.075195 
	C735.191956,753.348389 730.469177,758.793640 727.428772,767.261108 
	C722.158875,781.937622 714.154175,795.592529 704.922791,808.303772 
	C702.001099,812.326904 700.783081,814.939758 704.309143,819.884460 
	C711.026917,829.305237 716.221375,839.800049 722.298523,849.695190 
	C725.230042,854.468506 728.005615,859.571167 733.733948,861.813599 
	C734.293945,862.032959 734.833740,862.608215 735.127991,863.155396 
	C738.863586,870.101990 736.754578,884.280762 731.216431,890.246277 
	C728.952942,892.684387 726.436340,892.941895 722.893799,891.050964 
	C725.441040,896.969604 721.027466,897.846802 717.784424,899.492859 
	C707.648682,904.637817 707.538391,904.581421 700.810303,895.515869 
	C695.239075,888.009033 690.583679,879.913513 685.791626,871.918701 
	C682.870361,867.045105 678.982178,863.384033 674.251404,860.411377 
	C671.978271,858.982910 670.198303,859.326721 668.614319,861.362549 
	C665.154297,865.809509 661.669495,870.231445 656.416016,873.390076 
	C659.202637,878.595337 666.185242,876.199280 668.827148,880.898132 
	C668.240234,882.767212 665.693909,881.906982 664.557739,884.596313 
	C667.509460,889.448120 670.669739,895.000671 674.176270,900.325134 
	C679.845825,908.934021 683.459229,918.447327 685.712402,928.333740 
	C686.773132,932.987915 684.961182,939.127808 681.301331,941.417480 
	C676.989136,944.115479 670.811707,944.588196 665.462097,941.997864 
	C640.271667,929.800781 616.912659,914.925964 597.161621,894.854187 
	C591.955383,889.563354 586.079041,885.393433 579.195923,882.515442 
	C565.692139,876.869080 552.801025,869.731201 538.550110,865.910583 
	C536.967102,865.486145 535.220154,864.515381 533.870178,865.985168 
	C532.544434,867.428589 533.474548,869.153137 534.091675,870.681885 
	C536.269897,876.077515 538.168701,881.570618 540.833008,886.786987 
	C548.596375,901.986633 551.137817,918.676636 554.096008,935.209595 
	C555.177063,941.251343 553.555176,947.143860 551.843750,952.896545 
	C550.026855,959.004211 540.937500,962.257751 535.633789,958.982971 
	C519.205139,948.839294 508.115692,933.554810 496.598694,918.666138 
	C493.317688,914.424500 490.515320,909.895325 488.347656,905.008362 
	C480.869141,888.148376 466.974579,878.673706 450.536346,872.232605 
	C445.936981,870.430359 441.017578,871.002502 436.237946,871.885132 
	C420.533875,874.784912 404.869324,878.312378 388.759094,877.169922 
	C379.882263,876.540466 371.112488,875.044678 366.181030,866.073975 
	C362.721375,859.780579 356.634613,856.706909 350.383423,854.573975 
	C345.234955,852.817261 339.930664,855.378662 334.885468,856.827942 
	C329.779083,858.294678 324.688965,860.034363 319.879608,862.272949 
	C310.551971,866.614685 302.315796,863.837646 294.729340,858.550598 
	C288.192505,853.995056 282.278961,848.569336 277.552216,842.014160 
	C269.281555,830.544128 258.729980,822.651978 244.621262,819.379395 
	C238.887131,818.049316 233.526611,814.885742 228.173752,812.202148 
	C223.546005,809.882080 223.475815,804.814148 222.179596,800.606934 
	C219.476395,791.832825 213.816208,787.320190 204.661423,786.984070 
	C202.331970,786.898499 199.995956,787.000244 197.662949,787.002319 
	C185.030197,787.013611 171.973175,775.778564 169.864120,763.247986 
	C168.411743,754.618896 168.787277,746.002136 169.423935,737.341187 
	C170.769958,719.030334 176.013489,701.746887 182.414200,684.658630 
	C186.570679,673.561829 188.895905,661.923035 189.950333,650.075989 
	C190.112595,648.252869 190.282028,646.423157 190.595093,644.621948 
	C192.163956,635.595520 194.940048,633.763428 203.575485,636.130676 
	C212.323547,638.528748 221.758179,638.338013 229.808014,643.487122 
	C232.110031,644.959717 234.769211,643.514343 236.657532,641.750183 
	C242.324631,636.455688 248.177628,635.781067 254.725189,640.216003 
	C258.443085,642.734314 262.035370,642.452942 265.570007,639.145142 
	C271.841553,633.276184 279.922394,629.665771 285.338226,622.545288 
	C288.131134,618.873291 293.272736,617.816162 297.546234,615.977478 
	C303.568115,613.386475 309.146057,610.722412 312.213348,604.076538 
	C314.620758,598.860352 329.534698,594.723267 334.665924,597.440552 
	C341.370026,600.990662 348.326874,604.491821 350.957214,612.541443 
	C355.653473,609.428467 359.507263,598.682251 357.571930,593.957581 
	C355.491211,588.878052 353.369690,583.768982 350.705627,578.984802 
	C345.727570,570.045044 343.860809,560.343140 342.641632,550.388977 
	C342.428070,548.645264 342.261078,546.755859 341.082062,545.350037 
	C339.897430,544.971741 339.324188,545.669617 339.050507,546.442444 
	C336.019379,555.002563 330.909851,562.905762 330.947327,572.445801 
	C330.955475,574.517090 331.143829,577.220520 328.055389,577.377563 
	C325.056610,577.530029 323.299011,575.302124 323.022888,572.751221 
	C322.470337,567.646851 320.240662,563.188660 318.446320,558.548767 
	C316.109131,552.505188 315.744690,546.484314 316.772644,539.967957 
	C319.829376,520.591248 326.596832,502.728302 336.772522,486.031586 
	C340.685089,479.611664 341.047089,472.690186 338.682709,465.559174 
	C333.721924,450.597412 333.050995,435.416168 335.073395,419.767761 
	C336.924683,405.443207 341.261780,391.889008 345.545532,378.276398 
	C351.286469,360.033051 353.537018,341.262543 355.010895,322.306732 
	C356.677765,300.867981 357.380615,279.416565 356.861938,257.922180 
	C356.493073,242.636963 353.845978,227.445526 354.981018,212.098358 
	C355.487793,205.246033 355.984711,198.392960 356.155029,191.481064 
	C352.151917,198.874985 350.317719,206.872604 349.241455,215.081268 
	C348.981171,217.066315 349.205902,219.459900 346.555359,219.728561 
	C344.194397,219.967850 343.681641,217.645721 343.149506,216.003448 
	C339.095734,203.494003 337.475616,190.604294 339.290192,177.609802 
	C342.592102,153.963943 353.805939,134.365036 371.281067,118.242012 
	C371.975739,117.601097 373.055939,117.180069 372.943542,115.833214 
	C371.027924,114.922157 369.909882,116.652496 368.557251,117.307686 
	C355.825745,123.474564 345.184418,132.478104 334.769318,141.894226 
	C317.420502,157.579025 303.322388,175.681427 292.261841,196.278000 
	C282.196442,215.021439 273.654175,234.218536 271.476410,255.704422 
	C270.060760,269.671173 272.664581,282.916382 278.639862,295.480774 
	C281.186646,300.835968 289.257751,301.048798 292.498016,296.106445 
	C294.044983,293.746826 295.384430,291.248779 296.766937,288.784821 
	C297.351990,287.742065 297.863129,286.582916 299.310089,286.860382 
	C300.582397,287.104401 301.211243,288.111755 301.491577,289.330048 
	C301.566254,289.654449 301.628723,289.982269 301.681763,290.310944 
	C302.921051,297.989716 292.670319,307.711487 284.994781,307.142365 
	C274.113129,306.335541 269.442719,298.792480 266.559692,290.320404 
	C261.263123,274.755951 263.392395,258.750549 266.208862,242.983780 
	C273.286194,203.364380 292.975922,169.969803 319.414429,140.622711 
	C331.240326,127.495766 343.801056,114.553192 358.733398,104.626930 
	C378.209900,91.679939 399.768951,84.568771 423.042511,81.863251 
	C440.294861,79.857681 457.245636,80.758430 474.203735,83.881187 
	C480.019012,84.952049 484.957184,88.275902 490.474304,90.160614 
	C496.000793,92.048546 501.574188,92.300941 507.233978,92.019203 
	C522.237793,91.272331 537.128235,91.274559 551.787476,95.461235 
	C562.584656,98.544884 571.669067,104.457413 580.500122,111.085197 
	C608.065796,131.773560 623.433105,159.614899 630.733459,192.956467 
	C633.996704,207.860107 638.702087,222.477249 640.976196,237.632324 
	C642.207397,245.836960 643.352478,254.064926 644.146484,262.319885 
	C644.491028,265.902130 645.915527,269.071869 646.843567,272.411926 
	C652.538574,292.906891 656.134766,313.939819 663.503540,334.020233 
	C672.605286,358.822968 685.094727,381.494995 702.161987,401.747711 
	C712.226135,413.690247 722.494385,425.653931 730.933044,438.729645 
	C744.899048,460.369812 753.707764,484.149933 755.499878,510.222565 
	C755.922668,516.373535 756.108643,522.509888 756.343201,528.658936 
	C756.605652,535.538391 754.667725,541.802673 751.654663,547.834656 
	C750.603943,549.938232 749.514465,552.265503 746.784058,552.329468 
	C743.842957,552.398315 744.015686,549.480713 743.023438,547.716125 
	C742.708435,547.155762 742.475952,546.549072 742.035522,545.594910 
	C737.117554,548.566223 733.854553,552.455505 732.679810,557.919983 
	C731.293030,564.371338 728.027771,570.017456 725.150574,575.828430 
	C724.347351,577.450500 723.469177,579.274536 721.187805,579.080994 
	C718.423462,578.846558 718.234558,576.310059 718.162415,574.569397 
	C717.901306,568.267090 718.059570,561.947510 717.365173,555.585815 
	C713.478455,562.860168 711.660706,570.512512 714.531738,578.420410 
	C715.964661,582.367004 714.784546,584.289001 711.589294,586.029541 
	C708.616211,587.648987 706.100830,589.938232 704.317078,592.762878 
	C701.209717,597.683472 697.039978,599.134033 691.500061,597.817505 
	C688.795410,597.174744 685.907776,596.528870 683.127197,598.899048 
M615.186768,866.609863 
	C623.277405,862.566101 631.629272,864.329590 639.544556,866.519043 
	C646.407410,868.417419 652.336609,867.104980 658.370972,864.482422 
	C662.839722,862.540283 666.666809,851.838074 664.184082,848.186768 
	C662.126831,845.161011 659.699402,842.388977 657.593506,839.393738 
	C655.439575,836.330261 653.008667,836.396851 650.447693,838.597839 
	C639.922668,847.643494 627.133789,853.438660 616.492310,862.313477 
	C615.355652,863.261536 614.104065,864.271362 612.301331,862.782104 
	C612.703674,859.718628 615.189697,858.131226 617.397888,856.579468 
	C625.161499,851.123901 632.914001,845.631592 640.921204,840.547791 
	C656.280884,830.795898 659.114258,823.363708 654.036316,805.803894 
	C650.753296,794.451294 647.958862,782.957642 644.694824,771.599243 
	C634.304382,735.441772 633.756714,734.589478 607.196167,707.901123 
	C594.272522,694.915283 579.740173,683.616943 567.354736,670.073303 
	C560.806152,662.912415 554.907043,655.305359 552.185242,645.704712 
	C551.204590,642.245422 550.134827,638.705872 552.703857,635.725891 
	C555.082275,632.967163 558.420532,634.664062 561.172424,635.247070 
	C576.351746,638.462891 591.055176,643.341858 605.570435,648.746887 
	C617.002869,653.003967 623.595154,662.982666 631.419739,671.454651 
	C631.952576,672.031555 632.112793,672.954590 632.439209,673.719727 
	C642.180359,696.555115 650.992004,719.716675 656.255737,744.054260 
	C657.444336,749.549866 661.619873,752.714050 664.740479,756.732178 
	C665.547913,757.771851 666.839294,757.933228 667.921265,757.264343 
	C671.985046,754.752136 676.754883,753.160706 679.508850,748.880737 
	C682.449707,744.310242 684.698792,739.237610 689.461304,736.238586 
	C688.244324,733.334229 686.031677,732.004456 683.986511,730.696472 
	C673.420593,723.939087 666.332581,714.168579 660.120239,703.604492 
	C656.574280,697.574524 653.196472,691.438293 649.456848,685.531006 
	C635.528503,663.529541 623.079651,640.750000 613.128540,616.665588 
	C609.222778,607.212585 603.066040,599.518188 595.714294,592.609436 
	C590.496765,587.706238 585.038330,583.000183 580.312378,577.653748 
	C577.113098,574.034424 572.552673,571.178040 571.792603,565.727600 
	C569.769775,551.220337 568.838318,536.609680 567.458984,522.040771 
	C567.000000,517.192688 567.303345,511.877045 564.227295,507.257965 
	C560.338379,509.290558 559.156311,512.966675 557.013367,515.822327 
	C554.766846,518.815857 552.587585,519.202759 550.372131,515.846497 
	C548.448303,512.932068 546.534180,510.040924 544.970520,506.875580 
	C538.257996,493.287567 536.218506,478.262939 531.544189,464.055389 
	C530.682617,461.436462 531.428467,459.481659 533.929749,458.256958 
	C535.604614,457.436859 537.571777,456.549683 537.540833,454.501221 
	C537.469360,449.766602 536.257690,445.259186 534.185120,440.602692 
	C531.306335,443.163116 531.023499,446.102844 530.408508,448.774902 
	C528.657776,456.381195 526.901001,464.000702 525.594421,471.691101 
	C523.669312,483.022308 522.531067,494.452118 523.698364,505.959534 
	C523.890564,507.854279 524.550964,509.689789 522.599854,510.850739 
	C520.289490,512.225464 518.719116,510.402008 517.497009,508.965698 
	C513.630310,504.421051 509.127686,500.367249 506.530884,494.802979 
	C505.844543,493.332336 505.604980,491.095703 502.903229,491.148865 
	C500.727814,495.323669 504.207153,500.671021 500.625305,504.679352 
	C497.691467,503.543884 497.247711,501.192627 496.583466,498.992645 
	C491.076813,480.754089 487.555176,462.204102 487.943695,443.060425 
	C488.007355,439.922791 487.143524,437.101318 485.454468,434.567047 
	C480.299377,426.832397 472.397186,424.174500 463.712280,423.251923 
	C454.306030,422.252747 448.969482,417.841370 446.661743,408.730804 
	C445.802612,405.338867 445.049255,401.925812 445.013519,398.393402 
	C444.973114,394.398468 442.933136,393.739929 439.869293,395.645630 
	C436.054443,398.018494 432.309113,400.515289 429.042603,403.656219 
	C426.989258,405.630615 426.103027,407.687317 426.636963,410.755432 
	C428.061432,418.940247 431.291199,426.476379 435.363251,433.483307 
	C440.029083,441.511932 440.001251,449.684418 437.964630,458.070770 
	C430.739227,487.823242 422.126465,517.217529 414.941650,546.987915 
	C412.576172,556.789124 411.246307,566.972656 406.038300,575.983276 
	C400.339661,585.842834 393.338806,594.727478 386.061920,603.403198 
	C374.194458,617.552002 362.314392,631.709045 348.014679,643.555908 
	C345.950226,645.266174 343.912964,647.220886 339.437012,647.042969 
	C346.374664,637.902527 354.883972,631.465576 361.017548,622.629639 
	C358.142181,621.968140 356.035278,622.306396 353.880157,622.593018 
	C334.457306,625.176208 315.895447,630.942261 297.538208,637.550720 
	C281.538116,643.310669 268.750458,652.473511 259.834778,667.605652 
	C249.440399,685.247437 239.382126,703.081970 229.075836,720.771545 
	C224.381897,728.828186 220.809082,737.524719 221.249420,747.219299 
	C221.424057,751.064270 222.218948,754.697266 226.067123,756.418640 
	C227.359344,755.794373 227.627655,755.029907 227.734512,754.174866 
	C227.989853,752.131836 228.250748,749.979614 230.936157,749.890869 
	C233.382111,749.809998 234.313705,751.678345 235.000015,753.645386 
	C241.947525,773.558716 251.580994,792.152588 262.678802,810.028320 
	C271.795593,824.713013 280.279144,839.930115 294.493134,850.569641 
	C302.089203,856.255493 309.782562,862.180481 320.070099,856.060669 
	C322.919556,854.365601 326.237732,853.442444 329.036621,851.681580 
	C335.055206,847.894958 341.474579,847.332458 348.256836,848.444824 
	C350.000458,848.730774 351.852692,849.434753 353.361084,847.816467 
	C351.287598,837.953308 348.347626,835.043213 338.946472,833.670227 
	C334.974823,833.090210 331.100739,832.501831 327.731354,829.934631 
	C322.235138,825.747070 316.704773,807.427490 318.722595,799.402832 
	C321.812134,787.116089 321.275330,774.239807 324.787567,762.015259 
	C325.050781,761.099182 324.856659,760.019409 324.740662,759.031555 
	C323.502289,748.485901 323.650665,737.800842 321.015411,727.383972 
	C319.627014,721.895813 317.317993,720.073059 312.311005,722.431946 
	C308.915649,724.031555 306.020111,723.744263 302.976929,721.768494 
	C303.576233,718.579834 305.001312,715.973633 306.416107,713.340454 
	C310.628540,705.500427 317.221039,699.387817 321.901306,691.902527 
	C324.085846,688.408691 327.045288,686.015320 330.535919,683.865112 
	C339.666748,678.240601 349.788635,673.824158 355.483521,663.779724 
	C356.478851,662.024231 357.092957,658.089539 360.544067,659.696106 
	C364.115692,661.358765 361.770416,664.196045 360.991455,666.593933 
	C360.926605,666.793640 361.286896,667.131409 361.739563,667.892334 
	C371.607269,664.275635 382.318329,663.300781 392.214081,659.241516 
	C393.683990,658.638550 395.311798,657.171936 396.765503,658.811646 
	C398.540070,660.813232 396.910370,662.550110 395.685883,664.093872 
	C389.063934,672.442566 382.921021,681.148804 376.535767,689.666687 
	C362.487305,708.407349 350.895264,728.575989 340.001221,749.210022 
	C332.452972,763.506897 330.961121,777.952515 337.191498,793.369202 
	C346.491364,816.381165 355.398315,839.517151 369.566345,860.152954 
	C372.946442,865.075989 378.247101,867.325623 383.106201,870.069519 
	C386.193268,871.812683 389.025879,868.802856 392.009430,868.077148 
	C394.267761,867.527771 396.550903,867.017273 398.852814,866.720947 
	C408.459229,865.484070 418.125366,865.890930 427.773956,865.745789 
	C436.816498,865.609802 445.616241,864.135071 454.150024,860.938110 
	C476.442566,852.586853 498.898163,844.660095 521.076538,836.019470 
	C532.451843,831.587708 543.534973,832.401672 554.846252,835.326233 
	C556.545593,835.765564 558.969604,835.900391 558.696411,838.376526 
	C558.451965,840.592163 556.155945,840.826782 554.373657,841.019653 
	C549.950439,841.498230 545.848755,839.749878 541.638733,838.846191 
	C533.357544,837.068726 526.110046,839.869263 517.646179,843.518066 
	C523.301208,846.992615 528.636414,847.897339 533.668091,848.537720 
	C551.408630,850.795532 568.123169,855.960693 583.710266,864.671265 
	C593.665894,870.234802 603.837158,870.945618 615.186768,866.609863 
M400.097351,204.652817 
	C392.973877,204.551544 386.143982,205.108124 382.073334,212.276672 
	C381.480682,213.320404 380.389313,214.016327 379.197571,214.085922 
	C375.575684,214.297363 374.998657,216.603577 375.023987,219.594482 
	C375.097260,228.258896 374.870331,236.931702 375.186554,245.585678 
	C375.339661,249.775955 375.204559,254.140610 376.839355,258.034180 
	C378.194061,258.233521 378.798187,257.603180 379.189545,256.889618 
	C383.173126,249.626556 389.892456,245.215759 396.275421,240.462189 
	C398.287842,238.963501 400.281738,237.881927 403.144409,238.389938 
	C412.578156,240.063980 418.637390,248.851685 415.797119,258.231384 
	C412.524170,269.040100 410.734344,280.126465 411.480469,291.202271 
	C411.907440,297.541138 409.205933,301.251007 405.631256,305.041229 
	C402.213806,308.664734 397.389679,308.727264 392.980225,307.946869 
	C389.190887,307.276245 389.242462,303.362030 388.621216,300.296967 
	C387.520691,294.867798 383.486115,291.525787 380.604462,287.189575 
	C378.375671,289.178589 378.339233,290.862335 378.229736,292.521423 
	C377.845245,298.347290 376.909637,304.093658 375.652588,309.786652 
	C373.760742,318.354309 375.624756,326.001923 381.524139,332.462799 
	C397.352264,349.797394 417.341644,361.125275 438.411896,370.525818 
	C444.037994,373.035919 450.302002,374.882660 457.199310,373.902710 
	C473.497284,371.587067 488.859467,366.144043 504.318726,361.006500 
	C513.229248,358.045227 520.422546,352.797974 525.133667,344.169281 
	C531.645874,332.241791 536.529480,319.733856 539.699158,306.593506 
	C545.369995,283.084473 547.378052,258.990051 550.612976,235.094528 
	C551.050659,231.861725 550.309998,228.941910 548.669617,226.021484 
	C544.662903,218.888153 541.139832,211.538177 540.733948,203.107529 
	C540.625366,200.853271 539.920166,198.705276 537.345520,196.851379 
	C537.320801,204.581512 534.674438,211.188202 534.240173,218.163528 
	C534.096741,220.466400 533.133179,222.476059 530.484070,220.927429 
	C522.441223,216.225784 513.471802,213.049530 505.757446,208.191116 
	C496.772095,202.532242 488.256287,201.037598 478.314667,203.057434 
	C474.851746,203.760986 471.358490,205.815567 467.617645,204.101822 
	C464.383972,202.620422 461.191772,202.995041 457.889008,203.969818 
	C452.352783,205.603775 450.889343,204.174179 452.020538,198.425568 
	C452.276825,197.123230 452.771149,195.869614 453.102844,194.579926 
	C454.838135,187.833466 455.436615,181.034363 454.495667,173.717880 
	C451.799805,174.881760 451.401520,176.895828 450.752899,178.711807 
	C447.548462,187.682663 445.072693,196.803101 444.635468,206.402451 
	C444.558441,208.093750 444.563538,210.388977 442.312561,210.948807 
	C440.304718,211.448166 438.837250,209.995132 437.601990,208.646561 
	C431.216614,201.675797 426.092621,194.042313 424.381897,184.453964 
	C423.976685,182.182739 424.153137,179.342239 421.506409,177.899017 
	C418.954620,178.804031 419.100708,181.282730 418.161011,183.138504 
	C415.585571,188.224518 417.657898,194.099075 414.435028,199.366043 
	C409.469940,207.480286 410.006500,207.808609 400.097351,204.652817 
M642.786377,573.638184 
	C640.405945,568.689392 637.774597,563.843750 635.689697,558.773438 
	C627.901001,539.831665 622.005493,520.211304 615.441956,500.838501 
	C608.869141,481.438507 600.528259,462.725586 593.909851,443.348969 
	C590.793335,434.224884 586.972778,425.326080 583.158691,416.459686 
	C579.071960,406.959778 575.317993,405.878998 566.927063,411.303314 
	C555.726318,418.543945 551.605469,429.794861 550.256897,442.205322 
	C549.165771,452.246002 552.574585,461.635651 556.439880,470.723724 
	C563.471863,487.257568 571.242676,503.467957 576.850525,520.605652 
	C581.626221,535.200256 588.918030,548.747253 595.588989,562.526672 
	C605.965637,583.960144 614.254822,606.306946 624.416931,627.828064 
	C635.386292,651.058655 649.006470,672.768127 662.659546,694.466187 
	C667.443115,702.068359 671.190979,710.463928 677.534119,716.882629 
	C688.593811,728.074219 701.540955,736.705811 715.320374,744.412537 
	C723.801392,749.155945 731.208252,748.846130 739.199524,744.737061 
	C742.676880,742.949097 747.054749,742.398682 749.312256,737.955933 
	C741.755554,736.081482 737.488831,744.927307 729.455017,743.235779 
	C732.825439,737.229004 739.768860,736.978943 743.686157,731.596436 
	C741.501587,732.389221 740.291809,732.875854 739.051575,733.265564 
	C737.662903,733.701843 735.993225,734.613403 735.155579,732.666138 
	C734.388184,730.882263 735.910034,729.884644 737.200684,729.175293 
	C739.679504,727.812744 742.262939,726.641052 744.798706,725.381531 
	C747.047607,724.264282 748.568848,722.747498 747.877869,719.900879 
	C745.136597,718.780212 742.779602,723.107727 740.007263,720.369019 
	C740.739624,715.467163 749.046143,715.650391 747.146118,708.988220 
	C745.875427,704.532837 745.616516,699.772217 741.988281,695.802185 
	C740.377441,698.674561 740.950073,701.036133 740.976318,703.299500 
	C741.058960,710.432007 739.520508,711.430969 733.142517,707.873535 
	C724.126343,702.844299 715.107178,698.049622 705.074951,695.046570 
	C698.037781,692.940002 692.219666,688.442749 689.307129,680.964600 
	C683.750916,666.698914 678.100037,652.464722 672.169556,638.351440 
	C663.085083,616.732117 655.285278,594.520569 642.786377,573.638184 
M380.778320,600.298096 
	C384.759186,595.378906 388.811737,590.515747 392.705139,585.528259 
	C399.525116,576.791748 404.935852,567.382507 407.306610,556.345154 
	C410.029633,543.667664 413.205872,531.088196 416.085693,518.443542 
	C420.855377,497.501099 427.390167,477.027679 432.491028,456.162903 
	C435.407440,444.233398 430.859985,435.098724 424.970947,425.405304 
	C422.625153,428.121246 421.853912,430.820038 421.122162,433.546326 
	C416.852386,449.454407 413.179047,465.533600 407.804016,481.127411 
	C401.029449,500.781616 396.667725,521.259094 388.275848,540.340027 
	C378.485138,562.601501 369.712280,585.243469 361.491028,608.112305 
	C360.798340,610.039124 359.126343,612.388733 361.217590,614.126526 
	C363.287689,615.846802 365.594208,614.290344 367.751587,613.401672 
	C373.700378,610.951233 376.276062,605.169006 380.778320,600.298096 
M487.216919,372.742981 
	C480.353027,374.418549 475.188141,377.973633 472.930511,385.080048 
	C472.377319,386.821442 470.732544,388.066803 468.930481,388.647430 
	C463.933777,390.257263 458.424164,391.030609 457.198700,396.937286 
	C454.569641,397.138977 453.855591,394.721466 451.645599,395.218994 
	C450.052155,402.043884 451.985413,408.589050 453.681885,415.131653 
	C454.075592,416.650085 455.495392,417.031555 456.922943,416.803101 
	C458.531006,416.545776 460.265106,416.444733 461.138794,415.070160 
	C461.751678,413.281525 459.610077,412.241516 460.528290,410.523438 
	C461.972351,410.523438 463.483215,410.745178 464.905243,410.483734 
	C470.112793,409.526245 475.227325,408.012390 479.077820,413.753845 
	C480.005127,415.136536 482.614319,415.397980 484.456757,416.158813 
	C488.369202,417.774536 490.734100,416.514282 492.044647,412.463654 
	C493.938202,406.611206 495.934265,400.779053 498.203827,395.064240 
	C501.219086,387.471771 505.265564,380.366241 509.047943,373.135925 
	C510.191345,370.950195 512.130066,368.694000 510.508423,364.950378 
	C502.915802,367.462585 495.420288,369.942657 487.216919,372.742981 
M676.425354,792.866089 
	C673.371948,794.720703 670.825928,797.035889 669.437195,800.435669 
	C667.447632,805.306580 668.213379,807.075073 673.414917,808.270264 
	C678.436707,809.424133 683.514404,810.462524 688.625183,811.052307 
	C691.651306,811.401489 695.339111,811.948120 697.404053,808.893982 
	C706.722412,795.111572 715.792786,781.205078 721.650818,765.436768 
	C723.664490,760.016541 721.480408,756.264954 717.668640,753.935730 
	C711.716248,750.298340 705.642883,748.781982 703.251587,757.656433 
	C702.590088,760.111267 701.232422,762.203674 699.651306,764.171631 
	C697.528137,766.814270 696.080750,769.694031 695.775208,773.196289 
	C695.478638,776.594727 693.794617,779.395264 691.510071,782.017944 
	C687.466553,786.659973 682.390259,789.728577 676.425354,792.866089 
M466.378204,874.079346 
	C468.576813,875.573730 470.721802,877.155151 472.983124,878.547729 
	C484.405334,885.581909 486.548279,885.436768 497.007233,877.120850 
	C504.777435,870.942871 505.644928,861.786560 499.092896,855.098633 
	C496.936127,852.897156 494.806122,852.224854 491.552612,853.480408 
	C481.488556,857.364197 471.234558,860.754700 461.069641,864.379700 
	C459.439331,864.961121 457.404114,865.100342 456.796143,867.755310 
	C459.739380,869.694641 462.760651,871.685425 466.378204,874.079346 
M607.569092,884.143799 
	C613.300659,881.592896 617.208374,877.257935 620.520691,871.953308 
	C617.857483,870.637329 616.181519,871.760864 614.643066,872.552734 
	C604.659729,877.691528 595.146973,876.221008 585.704895,870.988586 
	C573.395142,864.167236 560.155823,859.785278 546.582214,856.227478 
	C535.699219,853.374878 524.146057,853.175293 513.881775,847.744324 
	C511.950714,846.722656 509.133209,846.419983 506.977600,848.443970 
	C507.917206,851.137573 510.205780,851.305115 512.217651,851.937378 
	C538.851196,860.306885 566.227051,866.921082 589.635986,883.162476 
	C595.438232,887.188110 600.805115,888.415527 607.569092,884.143799 
M589.670471,291.190735 
	C587.686035,297.220612 587.339172,303.581085 585.923767,309.724945 
	C585.511597,311.513977 584.792725,313.322571 586.540283,314.800751 
	C588.347839,316.329773 590.268616,315.692596 592.181824,314.987213 
	C596.890198,313.251221 601.181519,310.738586 605.391113,308.044220 
	C612.943176,303.210541 613.526855,301.572937 611.702515,292.926514 
	C610.485901,287.160858 605.574768,286.413727 601.367676,284.801208 
	C593.706665,281.864868 592.482788,282.564392 589.670471,291.190735 
M691.348267,661.359680 
	C687.977234,659.869019 687.792664,661.634521 688.781982,664.062927 
	C690.914307,669.296875 693.145813,674.493713 695.472534,679.644409 
	C698.623230,686.618958 707.654297,691.814026 715.571594,691.350891 
	C713.542542,681.359985 708.907776,673.072144 700.120850,667.423218 
	C697.324402,665.625488 694.663635,663.616821 691.348267,661.359680 
M518.332336,155.169785 
	C515.593201,154.654755 514.270386,152.469482 512.799744,150.465820 
	C510.634735,147.515930 508.605072,144.456207 506.289429,141.630386 
	C503.982758,138.815582 501.747986,138.931946 500.503296,142.608917 
	C499.708038,144.958038 499.319153,147.442932 498.710480,149.857498 
	C498.057770,152.446762 497.743011,155.158722 493.797180,154.761505 
	C491.463409,154.526581 491.242706,156.563248 491.736969,158.310135 
	C492.323853,160.384384 493.142334,162.400421 493.968353,164.397049 
	C494.494659,165.669235 495.332764,166.750397 496.934052,166.626907 
	C498.571075,166.500656 499.236572,165.213074 499.425201,163.902908 
	C499.826569,161.114639 499.771332,158.251846 500.288574,155.491821 
	C500.718353,153.198593 500.132965,149.747284 503.252899,149.321594 
	C505.832489,148.969635 506.816833,151.911530 507.861053,153.956802 
	C509.762299,157.680786 511.862061,161.256256 514.819885,164.256699 
	C516.316406,165.774796 517.955750,165.929001 519.779053,164.794281 
	C522.420288,163.150513 523.007690,160.717346 522.540588,157.865860 
	C522.219666,155.906723 521.697021,154.141129 518.332336,155.169785 
M376.267365,144.728699 
	C375.682495,147.892426 374.211304,151.075592 376.658691,154.826813 
	C382.248871,151.171738 385.559113,145.990601 388.466888,140.485794 
	C388.869781,139.722992 388.551331,138.739655 387.695190,138.355499 
	C384.338684,136.849380 385.588318,134.263245 386.241394,131.956894 
	C387.053467,129.088943 388.127472,126.294792 389.100342,123.472893 
	C389.652679,121.870735 390.277466,120.170158 388.728821,118.860291 
	C387.079987,117.465736 385.626892,118.619873 384.270996,119.618591 
	C382.933685,120.603615 381.597229,121.592651 380.303162,122.633110 
	C377.105530,125.204048 374.394409,127.842682 378.329437,132.002655 
	C379.444214,133.181152 379.123016,134.752380 378.638824,136.260376 
	C377.826782,138.789551 377.158264,141.364822 376.267365,144.728699 
M622.808044,905.231445 
	C621.541504,905.915527 619.883179,905.947083 618.759888,907.999146 
	C624.494385,912.279419 629.009094,918.347168 638.033386,915.991638 
	C642.061951,914.940063 643.531250,912.877014 643.295349,909.625977 
	C642.991943,905.445557 642.092590,901.226318 639.547058,897.064636 
	C634.081116,899.747253 628.773560,902.352173 622.808044,905.231445 
M513.586243,897.811401 
	C508.136993,899.235596 504.062286,903.066772 499.461914,905.960693 
	C497.806335,907.002258 497.870941,908.900818 498.623505,910.483704 
	C500.731171,914.916870 503.583954,918.802612 507.894043,921.347412 
	C510.696411,923.001892 513.049500,922.159485 513.507446,918.982971 
	C514.498901,912.106079 515.641602,905.180847 513.586243,897.811401 
M520.489380,193.029449 
	C517.359131,186.829056 515.338013,179.982986 509.966492,174.896591 
	C509.135406,181.407501 508.503296,187.735931 510.726074,193.994995 
	C511.465057,196.075729 512.109436,198.179245 514.304443,199.116760 
	C516.878235,200.216095 519.082825,204.417328 521.984619,201.940643 
	C524.665039,199.652893 521.675598,196.468277 520.489380,193.029449 
M680.268982,815.254578 
	C677.223389,815.555603 673.978638,812.910339 670.156494,816.398254 
	C679.921265,821.701050 689.680603,825.767639 698.492737,831.691589 
	C701.251465,825.844360 700.585815,823.068420 695.995728,820.678711 
	C691.298523,818.233276 686.489502,815.957764 680.268982,815.254578 
M389.724640,195.576782 
	C392.265747,195.372879 394.671722,195.913971 397.067596,196.732788 
	C398.733368,197.302109 400.624817,198.468033 402.142700,196.632187 
	C403.455994,195.043793 402.853577,193.134262 402.307892,191.378098 
	C401.124603,187.569885 399.896881,183.775177 398.652039,179.986542 
	C398.163910,178.500916 398.410126,176.547867 395.443298,175.765594 
	C392.007751,181.486511 388.245300,187.175674 388.107056,194.451950 
	C388.100708,194.785492 388.740631,195.131317 389.724640,195.576782 
M677.008789,838.497986 
	C674.453979,836.285889 672.547974,833.311768 669.447266,831.650940 
	C667.305725,833.964600 669.096558,835.592163 669.992798,837.177002 
	C673.581543,843.523071 677.298584,849.796570 680.931152,856.118042 
	C682.105469,858.161560 683.064453,860.580566 686.136902,859.152771 
	C689.432739,857.621277 688.326965,855.006042 687.232849,852.798523 
	C684.713318,847.714844 680.913147,843.489319 677.008789,838.497986 
M717.122681,867.380493 
	C719.845093,871.327271 722.559692,875.279480 725.293518,879.218262 
	C726.478821,880.925903 727.827271,882.630249 730.110352,881.012329 
	C732.084717,879.613342 732.672302,877.791382 731.253601,875.434143 
	C728.008606,870.042114 724.469299,864.859619 720.595215,859.910522 
	C719.516602,858.532715 718.196533,856.592041 716.158447,858.048828 
	C714.262817,859.403809 713.731812,861.548462 714.942993,863.792969 
	C715.492065,864.810486 716.122131,865.784241 717.122681,867.380493 
M606.720642,192.579376 
	C607.243713,187.289352 607.737305,182.029861 604.853699,177.118271 
	C603.571411,174.934097 602.062256,174.215759 599.526672,174.915741 
	C597.000183,175.613235 595.752686,177.013885 596.107361,179.521790 
	C596.877930,184.970901 598.162598,190.198074 602.460205,194.195755 
	C604.469299,196.064560 605.561157,195.501465 606.720642,192.579376 
M562.923523,406.372864 
	C563.567078,405.854919 564.233276,405.362366 564.849915,404.814117 
	C566.462830,403.380096 569.953613,403.483368 569.460510,400.404663 
	C569.020630,397.657349 566.027588,397.078491 563.861023,396.014984 
	C562.382324,395.289093 560.282288,393.292389 559.136475,395.648163 
	C556.157715,401.772400 553.694214,408.147247 551.025146,414.422089 
	C555.976929,412.932312 558.718933,409.283203 562.923523,406.372864 
M483.121155,180.734818 
	C481.276672,183.265076 479.467407,185.822037 477.575928,188.316666 
	C476.206696,190.122559 476.435822,191.482498 478.215820,192.930969 
	C480.929596,195.139328 487.226959,195.136444 490.219666,192.573349 
	C493.594971,189.682571 491.196106,186.927979 489.806213,184.201569 
	C489.207886,183.027924 488.421356,181.936264 487.937805,180.720825 
	C486.747498,177.728882 485.240692,178.468155 483.121155,180.734818 
M708.449219,855.778137 
	C710.167114,857.760132 711.898132,857.417175 713.549805,855.731750 
	C715.149231,854.099609 713.855835,852.777771 713.077393,851.306946 
	C711.024536,847.428406 707.645508,844.636475 704.981079,841.262817 
	C703.021484,838.781555 700.322693,838.614502 697.066406,840.255798 
	C699.922607,846.169312 704.612000,850.276489 708.449219,855.778137 
M709.004150,896.908081 
	C712.133423,896.768860 715.833740,896.682129 713.630981,892.052979 
	C711.867249,888.346252 709.203491,885.050049 706.785889,881.681641 
	C705.896729,880.442810 704.547302,879.632935 702.559509,881.224609 
	C703.273987,886.681335 705.851685,891.624756 709.004150,896.908081 
M597.318298,270.351471 
	C595.659363,269.583130 593.868713,269.155853 593.450500,271.537964 
	C593.072144,273.693390 592.233337,276.552032 595.234253,277.517059 
	C599.557922,278.907471 604.037537,279.813141 608.450562,280.925659 
	C605.983948,276.104523 601.840210,273.522369 597.318298,270.351471 
M692.563538,869.140930 
	C693.845093,872.800964 695.613708,876.068237 699.482971,877.984253 
	C702.751892,873.045959 699.401855,869.667419 697.205750,866.129700 
	C696.092773,864.336731 694.833191,861.760681 692.316345,862.924561 
	C689.261108,864.337402 691.811218,866.592957 692.563538,869.140930 
M473.847931,422.227478 
	C477.302704,423.763763 480.044159,426.632996 483.788269,427.606812 
	C485.316132,428.004211 486.886993,427.909393 487.422150,426.080475 
	C487.879669,424.516907 486.753296,423.606201 485.485229,423.070312 
	C481.983795,421.590668 478.309967,420.723145 474.529785,420.386749 
	C473.727783,420.315399 472.814026,420.616943 473.847931,422.227478 
M395.130341,261.151062 
	C392.788116,261.048492 391.263580,261.938751 391.213623,264.489746 
	C391.182465,266.082123 391.616486,267.586395 393.344421,267.982147 
	C395.132538,268.391724 396.685181,267.467804 397.579071,266.026367 
	C398.899414,263.897308 398.046417,262.267548 395.130341,261.151062 
z"/>
<path fill="#000000" opacity="1.000000" stroke="none" 
	d="
M517.055298,813.942383 
	C494.072083,822.145996 471.250427,817.466003 448.416046,815.727844 
	C435.350403,814.733215 422.247986,813.672974 409.052216,814.629578 
	C401.969177,815.143127 394.770630,814.135986 387.628357,813.740723 
	C380.501129,813.346375 377.428558,815.932434 376.966675,822.940369 
	C376.764435,826.008789 376.527710,829.137085 373.217316,830.498840 
	C370.175995,831.749817 367.514832,830.903198 364.976990,828.677368 
	C361.877808,825.959167 361.000916,826.074707 356.431213,828.228760 
	C353.161774,821.303223 353.600342,813.941711 354.333160,806.842834 
	C355.711670,793.489380 362.984650,783.354187 373.817291,775.880981 
	C383.647491,769.099182 392.708221,761.324524 403.604889,755.905945 
	C420.827759,747.341431 437.884277,747.348328 455.731689,753.157715 
	C478.957550,760.717896 500.730194,771.457764 522.078430,783.045166 
	C531.543335,788.182495 540.237549,794.773254 548.408142,801.901794 
	C550.125000,803.399658 552.231628,804.863342 550.019043,807.668762 
	C547.631531,810.695923 548.467773,816.849670 541.688965,815.473511 
	C533.717590,813.855347 525.718323,811.801025 517.055298,813.942383 
z"/>
<path fill="#000000" opacity="1.000000" stroke="none" 
	d="
M535.946777,628.048828 
	C534.001526,627.962830 532.331665,628.750061 530.584656,627.489075 
	C530.980957,624.852234 533.740173,623.638184 534.666321,621.196594 
	C535.313782,619.489685 537.260803,620.677368 538.476135,621.460632 
	C539.875671,622.362549 540.424744,623.710999 539.641357,625.278137 
	C538.959290,626.642578 537.816406,627.572021 535.946777,628.048828 
z"/>
<path fill="#000000" opacity="1.000000" stroke="none" 
	d="
M522.486206,300.455688 
	C512.841614,314.894836 506.822571,317.691559 491.171021,314.011688 
	C483.779388,312.273804 478.350098,309.269440 476.088928,300.479523 
	C473.570526,290.689575 470.433929,281.055359 468.902924,271.015442 
	C468.680237,269.555084 468.614563,268.020538 468.791321,266.558411 
	C469.461914,261.010590 471.359192,255.680786 471.201843,249.953323 
	C471.062286,244.873871 473.681244,241.423538 478.662598,240.921692 
	C479.094299,239.470032 478.612976,238.990082 478.007233,238.713593 
	C475.878296,237.741791 473.179901,236.941498 474.226898,233.878662 
	C475.127075,231.245499 477.822021,231.861938 479.881409,232.059433 
	C488.514709,232.887360 497.010925,234.381546 505.039062,237.876862 
	C508.228394,239.265427 510.937683,240.993683 511.182678,244.958633 
	C511.319061,247.166031 512.751770,248.389893 514.575623,249.525146 
	C525.166260,256.117188 532.750488,265.417755 538.355530,276.435303 
	C538.725342,277.162262 539.162231,278.058197 539.049316,278.796265 
	C537.866516,286.532990 534.754822,293.671509 531.958191,300.897552 
	C531.520508,302.028290 530.279175,302.493439 528.990295,302.202942 
	C527.662170,301.903625 527.233093,300.859131 526.930054,299.664642 
	C526.621948,298.450073 527.258606,296.936615 525.803772,295.994781 
	C523.701233,296.576630 523.617004,298.706787 522.486206,300.455688 
M494.737732,301.362274 
	C493.737396,298.455536 492.437714,295.973633 488.177307,296.912689 
	C489.122986,300.831390 492.058411,301.427368 495.561493,302.502960 
	C498.061188,304.153809 500.896179,304.008270 503.675446,303.881470 
	C505.593903,303.793976 507.594818,302.992065 507.404999,300.790985 
	C507.180725,298.189850 504.862976,298.081604 502.832642,298.394836 
	C499.896332,298.847900 497.011963,299.552338 494.737732,301.362274 
M480.639099,270.346802 
	C482.762177,270.413422 484.508087,269.518433 485.933929,268.058167 
	C487.552979,266.400024 488.351685,264.378601 487.147003,262.204041 
	C485.904999,259.962097 483.774902,259.042908 481.259796,259.487122 
	C478.882385,259.906982 477.464661,261.496216 477.216949,263.882935 
	C476.952148,266.434296 477.155487,268.898407 480.639099,270.346802 
z"/>
<path fill="#000000" opacity="1.000000" stroke="none" 
	d="
M428.202820,336.950867 
	C426.913666,332.951385 429.227814,331.772827 432.149658,331.461426 
	C435.139862,331.142761 439.351196,334.470154 438.945892,336.830017 
	C438.364014,340.218079 435.637817,340.707031 432.825775,340.255127 
	C431.001892,339.962006 429.545105,338.720917 428.202820,336.950867 
z"/>
</svg>