<svg xmlns="http://www.w3.org/2000/svg" xmlns:xlink="http://www.w3.org/1999/xlink" viewBox="0,0,256,256" width="50px" height="50px"><g fill="#ffffff" fill-rule="nonzero" stroke="none" stroke-width="1" stroke-linecap="butt" stroke-linejoin="miter" stroke-miterlimit="10" stroke-dasharray="" stroke-dashoffset="0" font-family="none" font-weight="none" font-size="none" text-anchor="none" style="mix-blend-mode: normal"><g transform="scale(5.12,5.12)"><path d="M25,2c-12.6907,0 -23,10.3093 -23,23c0,12.69071 10.3093,23 23,23c12.69071,0 23,-10.30929 23,-23c0,-12.6907 -10.30929,-23 -23,-23zM25,4c11.60982,0 21,9.39018 21,21c0,11.60982 -9.39018,21 -21,21c-11.60982,0 -21,-9.39018 -21,-21c0,-11.60982 9.39018,-21 21,-21zM23.80078,14.30078c-0.3,0 -0.40039,0.19844 -0.40039,0.39844v13.5c0,0.3 0.20039,0.40039 0.40039,0.40039h2.29883c0.3,0 0.40039,-0.20039 0.40039,-0.40039v-13.5c0,-0.3 -0.20039,-0.39844 -0.40039,-0.39844zM23.80078,32.30078c-0.3,0 -0.40039,0.19844 -0.40039,0.39844v2.60156c0,0.3 0.20039,0.39844 0.40039,0.39844h2.39844c0.3,0 0.40039,-0.19844 0.40039,-0.39844v-2.60156c0,-0.3 -0.20039,-0.39844 -0.40039,-0.39844z"></path></g></g></svg>